<?xml version="1.0" standalone="no"?>
<!DOCTYPE svg PUBLIC "-//W3C//DTD SVG 20010904//EN"
 "http://www.w3.org/TR/2001/REC-SVG-20010904/DTD/svg10.dtd">
<svg version="1.0" xmlns="http://www.w3.org/2000/svg"
 width="611.000000pt" height="611.000000pt" viewBox="0 0 611.000000 611.000000"
 preserveAspectRatio="xMidYMid meet">
<metadata>
Created by potrace 1.14, written by Peter Selinger 2001-2017
</metadata>
<g transform="translate(0.000000,611.000000) scale(0.100000,-0.100000)"
fill="#000000" stroke="none">
<path d="M2890 5490 c0 -11 -11 -15 -40 -14 -22 1 -43 -2 -46 -8 -3 -5 -11 -4
-20 3 -8 6 -14 7 -14 2 0 -5 -8 -9 -17 -10 -52 -5 -112 -15 -133 -23 -3 -1 -9
-2 -14 -1 -4 1 -13 -2 -20 -7 -6 -5 -21 -8 -33 -7 -13 1 -23 -2 -23 -5 0 -4
-14 -6 -31 -4 -22 3 -30 0 -26 -9 3 -8 -6 -12 -27 -11 -17 1 -37 -3 -44 -9 -7
-5 -15 -7 -19 -4 -3 3 -18 0 -34 -9 -16 -8 -29 -12 -29 -9 0 3 -10 -1 -23 -10
-13 -8 -27 -12 -30 -8 -4 3 -7 1 -7 -6 0 -7 -4 -10 -8 -7 -5 3 -25 -4 -46 -15
-20 -11 -42 -16 -48 -13 -7 4 -8 3 -4 -4 4 -8 0 -12 -11 -12 -11 0 -28 -7 -39
-15 -10 -8 -27 -15 -36 -15 -10 0 -18 -4 -18 -10 0 -5 -6 -10 -14 -10 -17 0
-80 -32 -84 -42 -2 -5 -13 -8 -23 -8 -11 0 -17 -4 -14 -10 3 -5 -3 -10 -14
-10 -11 0 -26 -6 -33 -13 -7 -8 -30 -22 -51 -32 -20 -9 -37 -22 -37 -27 0 -5
-4 -6 -10 -3 -5 3 -10 1 -10 -4 0 -6 -6 -11 -14 -11 -7 0 -26 -12 -41 -27 -16
-16 -25 -21 -21 -13 4 9 2 8 -7 -2 -8 -10 -19 -18 -24 -18 -6 0 -18 -10 -27
-22 -9 -13 -14 -16 -11 -8 4 10 2 9 -8 -2 -8 -10 -18 -18 -22 -18 -4 0 -16
-10 -26 -22 -11 -11 -19 -17 -19 -12 0 5 -7 -2 -16 -14 -8 -12 -22 -22 -30
-22 -8 0 -14 -4 -14 -10 0 -5 -7 -10 -16 -10 -8 0 -12 -4 -9 -10 3 -5 1 -10
-6 -10 -7 0 -28 -17 -47 -37 -20 -21 -32 -31 -27 -23 5 8 -28 -22 -73 -68 -45
-45 -82 -87 -82 -92 0 -5 -10 -16 -22 -25 -13 -8 -22 -18 -20 -20 7 -15 0 -24
-15 -18 -13 5 -15 2 -10 -11 4 -10 3 -15 -3 -11 -6 3 -10 2 -10 -2 0 -5 -13
-23 -29 -41 -17 -17 -28 -32 -25 -32 3 0 -1 -6 -8 -14 -7 -8 -17 -11 -22 -8
-5 3 -6 1 -3 -5 3 -5 -9 -27 -28 -48 -19 -20 -33 -40 -31 -44 6 -10 -21 -31
-30 -23 -4 4 -4 2 -1 -5 4 -6 0 -19 -9 -27 -8 -9 -13 -16 -9 -16 4 0 -1 -7 -9
-16 -9 -8 -16 -22 -16 -30 0 -8 -4 -13 -9 -10 -9 6 -36 -50 -32 -66 0 -5 -4
-8 -9 -8 -9 0 -32 -41 -34 -62 -1 -4 -8 -15 -16 -25 -8 -10 -15 -24 -16 -30
-2 -29 -4 -34 -12 -29 -4 2 -9 -4 -10 -15 -4 -43 -6 -49 -14 -49 -5 0 -7 -4
-3 -9 3 -5 1 -12 -5 -16 -6 -4 -8 -11 -5 -16 4 -5 2 -9 -4 -9 -5 0 -8 -9 -6
-20 2 -11 0 -20 -4 -20 -4 0 -13 -12 -19 -26 -7 -14 -8 -23 -2 -19 5 3 3 -7
-5 -21 -8 -15 -12 -31 -9 -36 3 -4 0 -8 -7 -8 -7 0 -9 -3 -6 -7 4 -3 2 -12 -3
-19 -6 -6 -13 -41 -16 -75 -7 -67 -11 -81 -18 -58 -2 8 -12 39 -21 69 -9 30
-24 60 -33 68 -12 10 -13 12 -2 7 8 -4 4 3 -9 14 -13 12 -20 21 -16 21 12 0
-38 46 -58 53 -10 4 -16 11 -13 16 4 5 -2 8 -11 7 -10 -2 -21 1 -24 6 -8 13
-143 12 -147 -1 -2 -5 -10 -7 -18 -4 -8 3 -14 0 -14 -7 0 -6 -4 -9 -9 -5 -5 3
-15 -1 -23 -8 -7 -7 -25 -20 -39 -29 -24 -15 -66 -84 -61 -100 1 -5 -2 -8 -6
-8 -5 0 -6 -14 -4 -31 3 -20 0 -34 -9 -40 -8 -5 -9 -9 -4 -9 14 0 15 -350 0
-350 -6 0 -7 -3 0 -8 14 -10 15 -42 1 -42 -6 0 -5 -4 3 -9 12 -8 12 -12 2 -25
-9 -11 -10 -16 -2 -16 6 0 11 -5 11 -11 0 -5 -5 -7 -12 -3 -7 5 -8 3 -2 -7 11
-18 11 -41 0 -56 -5 -9 -4 -13 4 -13 10 0 10 -3 0 -15 -9 -11 -9 -15 -1 -15 8
0 9 -5 1 -19 -7 -14 -7 -20 2 -23 8 -3 8 -9 -1 -25 -7 -14 -8 -24 -1 -28 5 -3
10 -11 10 -16 0 -6 -4 -7 -10 -4 -6 4 -7 -1 -3 -11 10 -27 9 -178 -1 -192 -7
-9 -5 -17 5 -24 11 -7 11 -11 2 -15 -7 -2 -13 -9 -13 -14 0 -6 6 -7 13 -3 9 6
9 4 -1 -8 -10 -13 -10 -17 0 -21 8 -4 9 -8 3 -14 -13 -10 -13 -36 -1 -45 6 -4
4 -13 -3 -22 -8 -10 -9 -16 -3 -16 6 0 9 -12 8 -27 -6 -51 32 -153 68 -187 12
-10 20 -23 18 -30 -2 -6 0 -8 4 -3 4 4 18 0 31 -8 13 -9 23 -12 23 -8 0 5 4 2
9 -6 5 -7 22 -13 37 -13 16 0 33 -3 38 -6 6 -3 80 -6 166 -7 85 -1 161 -4 168
-8 15 -10 51 -89 59 -132 2 -11 8 -21 13 -23 6 -2 10 -12 10 -23 0 -10 5 -19
11 -19 5 0 8 -4 4 -9 -3 -5 2 -17 11 -25 8 -9 12 -16 8 -16 -3 0 -1 -7 6 -15
7 -8 9 -15 4 -15 -5 0 -1 -7 9 -14 10 -8 18 -18 18 -23 -1 -17 11 -43 20 -43
6 0 8 -4 5 -9 -3 -5 0 -14 8 -20 8 -7 17 -23 20 -37 4 -14 11 -22 16 -19 5 3
7 -4 5 -15 -2 -11 0 -18 6 -15 5 4 9 0 9 -8 0 -8 7 -20 15 -27 8 -7 12 -16 9
-21 -3 -5 1 -12 10 -15 9 -3 12 -12 9 -22 -4 -9 -2 -14 2 -9 5 4 20 -11 35
-33 15 -22 30 -37 34 -33 4 4 4 0 0 -10 -4 -11 0 -19 10 -23 9 -3 16 -12 16
-20 0 -8 5 -14 10 -14 6 0 10 -6 10 -13 0 -7 9 -18 21 -25 12 -7 19 -15 16
-18 -2 -3 17 -28 44 -56 26 -28 45 -56 42 -61 -3 -6 -1 -7 4 -4 6 4 14 0 17
-9 3 -8 10 -12 16 -9 5 3 10 2 10 -4 0 -6 24 -35 54 -65 30 -30 52 -58 48 -62
-4 -4 -1 -4 5 0 8 4 29 -9 53 -34 22 -22 40 -38 40 -34 0 4 9 -3 20 -16 11
-13 20 -20 20 -17 0 6 35 -20 66 -51 8 -7 14 -10 14 -5 0 4 5 0 11 -10 6 -9
15 -15 20 -11 5 3 8 0 7 -8 -2 -8 4 -12 15 -10 9 2 17 -2 17 -7 0 -6 14 -18
30 -26 17 -9 28 -20 25 -25 -4 -6 1 -7 11 -3 12 4 15 3 10 -5 -5 -8 -2 -10 8
-6 9 3 16 1 16 -5 0 -6 7 -11 15 -11 7 0 18 -7 23 -16 5 -9 11 -15 13 -13 9 5
49 -13 45 -20 -3 -4 5 -8 17 -8 12 -1 23 -7 25 -13 2 -5 12 -10 23 -10 10 0
19 -4 19 -8 0 -5 18 -15 40 -22 22 -7 40 -16 40 -20 0 -4 18 -12 40 -19 22 -6
40 -16 40 -20 0 -5 7 -12 16 -15 8 -3 13 -2 10 3 -6 8 52 -18 77 -36 7 -4 21
-8 32 -8 11 0 23 -3 26 -8 3 -4 16 -9 27 -10 12 -1 22 -5 22 -10 0 -4 4 -6 9
-2 5 3 13 0 16 -6 4 -5 13 -8 21 -5 8 3 14 1 14 -4 0 -5 6 -7 14 -4 8 3 17 0
21 -5 3 -6 11 -9 16 -6 5 4 9 2 9 -4 0 -6 7 -8 15 -5 8 4 15 2 15 -3 0 -6 14
-9 30 -8 17 1 30 -1 30 -5 0 -6 7 -8 48 -12 9 0 20 -6 24 -12 5 -7 8 -6 8 4 0
11 2 12 8 3 4 -7 22 -13 40 -15 18 -1 32 -7 32 -13 0 -5 5 -3 10 5 5 8 10 10
10 4 0 -6 17 -11 38 -11 85 -2 121 -7 115 -16 -4 -6 -1 -7 6 -2 14 8 81 13 81
5 0 -3 16 -6 35 -7 25 -1 33 2 28 10 -5 9 -3 9 8 1 8 -6 31 -11 52 -10 21 1
40 -1 43 -6 3 -4 16 -3 29 2 18 7 25 6 26 -3 0 -6 4 -3 9 8 5 11 9 15 9 9 1
-10 98 -13 116 -3 6 3 22 5 38 4 15 -1 27 1 27 4 0 3 20 6 45 6 25 -1 45 4 45
10 0 5 5 3 10 -5 9 -13 10 -13 10 0 0 13 1 13 10 0 5 -8 10 -10 10 -5 0 9 21
15 68 18 6 0 12 5 12 10 0 5 6 7 14 4 8 -3 17 -1 20 6 3 8 5 8 5 -2 1 -11 4
-11 16 -1 8 7 15 9 15 4 0 -5 5 -2 10 6 7 11 10 11 10 2 0 -9 5 -10 18 -4 9 5
25 8 35 7 9 -2 15 1 11 6 -5 9 4 12 39 12 9 0 17 4 17 9 0 5 9 6 20 3 11 -4
20 -2 20 4 0 6 14 11 30 11 17 0 30 5 30 11 0 6 7 9 15 5 8 -3 15 -1 15 5 0 6
4 8 8 5 4 -2 26 4 49 14 23 10 44 16 47 12 3 -3 6 1 6 8 0 7 3 11 6 7 4 -3 19
0 35 9 16 8 29 11 29 8 0 -4 8 0 18 8 9 9 34 21 55 29 20 7 37 17 37 21 0 4 3
8 8 7 12 -2 52 13 52 20 0 3 20 15 45 26 25 11 45 23 45 28 0 5 6 7 14 4 8 -3
17 1 20 9 3 8 12 14 21 14 8 0 15 5 15 11 0 5 5 7 10 4 6 -3 10 -2 10 4 0 5 8
12 19 16 10 3 31 17 47 30 15 13 30 22 32 20 3 -2 13 6 24 18 11 12 17 15 13
7 -5 -12 -4 -12 7 1 7 8 30 27 50 41 21 13 35 28 30 33 -4 4 -1 6 7 3 8 -2 27
9 43 24 16 15 33 28 39 28 6 0 8 4 5 9 -3 5 8 14 24 21 16 7 29 15 28 19 -2
19 3 31 11 26 5 -3 18 6 29 20 11 14 25 25 31 25 6 0 10 4 8 8 -1 5 16 26 38
47 22 21 33 34 25 30 -8 -5 9 14 37 42 29 28 53 56 53 61 0 6 4 12 8 14 5 2
31 35 60 73 28 39 56 75 62 82 5 7 10 17 10 23 0 5 5 10 10 10 6 0 10 7 10 15
0 8 7 15 15 15 8 0 14 3 14 8 -4 21 2 32 13 26 7 -5 9 -2 5 9 -3 9 0 18 9 21
9 3 12 10 9 16 -3 5 -1 10 6 10 7 0 10 3 6 6 -3 3 3 14 14 25 11 11 17 25 13
31 -4 7 -3 8 4 4 7 -4 12 -1 12 8 0 9 4 16 10 16 5 0 9 3 8 8 -3 15 15 42 25
35 6 -4 8 2 5 15 -4 12 -3 20 2 17 4 -2 18 16 30 40 13 25 27 45 32 45 5 0 6
5 3 10 -3 6 -1 10 5 10 6 0 9 3 7 8 -3 4 3 25 14 46 10 22 19 45 19 52 0 7 4
14 9 16 8 2 14 23 20 69 1 4 18 6 40 6 21 0 45 4 52 9 8 4 25 9 39 10 14 1 26
3 28 4 1 1 6 3 11 4 5 0 12 4 16 8 4 4 13 4 21 1 8 -3 14 -1 14 5 0 6 10 8 22
4 12 -3 19 -1 15 4 -3 6 3 16 15 23 16 10 19 10 12 -1 -11 -20 35 20 88 76 26
27 44 54 41 59 -3 6 -2 8 3 5 5 -3 15 0 22 8 7 8 10 14 6 14 -3 0 6 17 22 37
15 20 21 33 13 29 -8 -4 -5 0 5 8 11 9 16 16 12 16 -5 0 -3 6 3 13 6 8 8 17 4
20 -3 4 -2 7 4 7 6 0 10 13 9 29 -1 17 1 28 4 26 9 -6 11 59 13 402 1 241 -2
294 -14 309 -7 10 -9 15 -3 11 7 -4 14 0 17 8 4 8 1 12 -6 9 -8 -3 -13 7 -14
28 -2 45 -10 77 -23 94 -7 7 -9 17 -6 23 3 5 1 11 -4 13 -6 2 -12 13 -13 26 0
12 -5 22 -9 22 -4 0 -8 8 -8 18 0 14 -2 15 -10 2 -8 -12 -10 -11 -10 6 0 23
-44 77 -54 67 -3 -4 -6 -1 -6 5 0 14 -36 52 -50 52 -5 0 -14 8 -19 18 -6 9
-11 13 -11 8 0 -5 -8 1 -19 12 -10 12 -21 18 -25 14 -4 -4 -13 0 -19 8 -7 8
-18 16 -26 18 -8 2 -39 10 -69 17 -30 8 -59 12 -63 9 -5 -3 -9 0 -9 6 0 7 -6
8 -19 0 -14 -7 -22 -7 -26 0 -4 6 -20 9 -36 6 -33 -5 -40 2 -46 52 -3 20 -11
46 -19 57 -8 12 -11 25 -7 28 3 4 1 7 -5 7 -7 0 -12 7 -12 15 0 8 -5 15 -11
15 -5 0 -7 5 -4 11 4 5 -1 19 -11 30 -9 10 -14 19 -10 19 4 0 0 7 -8 16 -9 8
-16 22 -16 30 0 8 -4 12 -10 9 -5 -3 -10 2 -10 13 0 10 -9 27 -20 37 -11 10
-20 23 -20 30 0 7 -9 20 -20 30 -12 10 -18 25 -15 32 2 8 1 12 -4 8 -5 -3 -15
8 -23 25 -7 16 -20 30 -28 31 -10 0 -11 2 -3 6 8 3 4 12 -12 27 -14 13 -25 28
-25 35 0 6 -4 11 -10 11 -5 0 -10 6 -10 13 0 7 -9 19 -19 27 -11 7 -18 17 -15
21 2 4 -5 10 -16 14 -11 4 -18 11 -15 16 4 5 -1 12 -9 15 -9 3 -16 13 -16 21
0 8 -4 11 -10 8 -6 -3 -10 -1 -10 6 0 13 -3 16 -74 91 -25 25 -42 49 -39 52 4
3 1 6 -6 6 -7 0 -39 27 -71 60 -31 33 -60 57 -63 53 -4 -3 -9 2 -13 11 -3 9
-12 16 -20 16 -8 0 -14 7 -14 17 0 9 -3 13 -6 10 -4 -4 -15 3 -25 15 -11 11
-19 17 -19 12 0 -5 -5 -1 -11 9 -5 9 -17 17 -25 17 -8 0 -12 5 -9 10 3 6 -1
10 -9 10 -9 0 -16 5 -16 10 0 6 -6 10 -14 10 -7 0 -21 10 -30 23 -9 12 -14 15
-11 7 4 -8 -1 -6 -10 5 -9 11 -21 19 -26 17 -5 -1 -12 5 -15 13 -4 8 -12 15
-19 15 -7 0 -18 7 -25 15 -7 8 -16 12 -21 9 -5 -3 -9 0 -9 5 0 6 -9 11 -21 11
-11 0 -17 5 -14 10 3 6 -1 10 -9 10 -9 0 -16 5 -16 10 0 6 -9 10 -20 10 -11 0
-20 3 -20 8 0 7 -81 46 -88 42 -2 -1 -10 7 -19 17 -8 10 -11 12 -8 5 6 -11 3
-11 -16 0 -13 7 -27 17 -30 21 -3 5 -10 8 -15 8 -17 -1 -44 10 -44 19 0 4 -8
7 -17 6 -10 -2 -24 3 -31 11 -8 7 -18 11 -23 8 -5 -4 -9 -1 -9 4 0 6 -9 11
-19 11 -11 0 -23 5 -26 11 -4 6 -13 8 -21 5 -8 -3 -14 -1 -14 5 0 6 -4 7 -10
4 -5 -3 -10 -1 -10 5 0 7 -7 9 -16 6 -10 -4 -13 -2 -8 6 5 7 2 9 -7 6 -8 -3
-32 2 -52 12 -20 10 -34 13 -30 7 5 -9 3 -9 -8 -1 -8 7 -30 15 -49 20 -19 4
-42 9 -50 12 -8 2 -25 4 -37 5 -13 0 -23 5 -23 10 0 5 -9 7 -20 4 -11 -3 -20
-1 -20 5 0 6 -7 8 -15 4 -8 -3 -15 -2 -15 2 0 6 -27 10 -82 13 -10 0 -20 5
-24 10 -4 6 -11 6 -20 -2 -9 -7 -14 -8 -14 -1 0 6 -11 9 -25 7 -14 -1 -28 2
-31 7 -3 5 -12 4 -20 -3 -8 -6 -14 -7 -14 -2 0 5 -13 9 -30 8 -16 -1 -30 3
-30 9 0 6 -5 4 -10 -4 -5 -8 -10 -10 -10 -5 0 12 -279 14 -297 2 -8 -5 -13 -4
-13 2 0 7 -9 7 -26 -1 -21 -10 -27 -9 -35 3 -7 12 -9 12 -9 -1z"/>
</g>
</svg>
